<svg width="39" height="49" viewBox="0 0 39 49" fill="none" xmlns="http://www.w3.org/2000/svg">
<path d="M39 37.3224C39 30.9341 35.377 25.4159 30.1364 22.8457V13.3548C30.1364 12.4904 29.8428 11.6547 29.2999 10.9964L20.8572 0.65257C20.5027 0.217523 19.9986 0 19.5 0C19.0014 0 18.4973 0.217523 18.1428 0.65257L9.70014 10.9964C9.16093 11.656 8.86466 12.4913 8.86364 13.3548V22.8457C3.62301 25.4159 0 30.9341 0 37.3224H8.66974C8.54233 37.7346 8.47585 38.1811 8.47585 38.6848C8.47585 39.9499 8.89687 41.1863 9.66136 42.1652C10.2854 42.9658 11.1118 43.5721 12.049 43.9168C13.3287 47.0079 16.2371 49 19.5 49C21.1121 49 22.6743 48.5077 24.0094 47.5804C25.3168 46.6759 26.3305 45.4109 26.9455 43.9168C27.8823 43.5742 28.7088 42.9698 29.3331 42.1709C30.0986 41.1832 30.5166 39.956 30.5186 38.6905C30.5186 38.2097 30.4577 37.7518 30.3469 37.3282H39V37.3224ZM33.366 30.7624C33.8868 31.5981 34.3078 32.4968 34.6125 33.4299H29.9148V27.1732C31.2969 28.1052 32.473 29.3283 33.366 30.7624ZM12.6307 22.8457V13.4407L19.5 5.02593L26.3693 13.4407V33.4299H12.6307V22.8457ZM4.3875 33.4299C4.69219 32.4968 5.11321 31.5981 5.63395 30.7624C6.53693 29.3199 7.71136 28.1006 9.08523 27.1732V33.4299H4.3875ZM25.9317 40.0815C25.6436 40.2533 25.3112 40.322 24.9844 40.2762L23.9041 40.1388L23.749 41.2493C23.4499 43.4188 21.6217 45.056 19.5 45.056C17.3783 45.056 15.5501 43.4188 15.251 41.2493L15.0959 40.1331L14.0156 40.2762C13.6872 40.3166 13.3549 40.2463 13.0683 40.0758C12.5864 39.7896 12.2872 39.2572 12.2872 38.6791C12.2872 38.0723 12.6141 37.5686 13.096 37.3167H25.9095C26.397 37.5743 26.7183 38.078 26.7183 38.6791C26.7128 39.263 26.4136 39.8011 25.9317 40.0815ZM16.8409 18.0888C16.8409 18.8175 17.1211 19.5164 17.6197 20.0317C18.1184 20.547 18.7948 20.8364 19.5 20.8364C20.2052 20.8364 20.8816 20.547 21.3803 20.0317C21.8789 19.5164 22.1591 18.8175 22.1591 18.0888C22.1591 17.3601 21.8789 16.6612 21.3803 16.1459C20.8816 15.6306 20.2052 15.3411 19.5 15.3411C18.7948 15.3411 18.1184 15.6306 17.6197 16.1459C17.1211 16.6612 16.8409 17.3601 16.8409 18.0888Z" fill="#F2F2F2"/>
</svg>
