<svg width="126" height="90" viewBox="0 0 126 90" fill="none" xmlns="http://www.w3.org/2000/svg">
<path d="M14.7578 21.5703L17.0234 12H18.2891L18.5781 13.5938L16.1641 23.375H14.8047L14.7578 21.5703ZM13.5938 12L15.4688 21.5703L15.3125 23.375H13.7969L11.2734 12H13.5938ZM20.5703 21.5312L22.4219 12H24.7422L22.2266 23.375H20.7109L20.5703 21.5312ZM19 12L21.2812 21.6094L21.2188 23.375H19.8594L17.4297 13.5859L17.7422 12H19Z" fill="#333333"/>
<path d="M45.3984 50.5625C45.3984 50.3594 45.3672 50.1771 45.3047 50.0156C45.2474 49.849 45.138 49.6979 44.9766 49.5625C44.8151 49.4219 44.5885 49.2839 44.2969 49.1484C44.0052 49.013 43.6276 48.8724 43.1641 48.7266C42.6484 48.5599 42.1589 48.3724 41.6953 48.1641C41.237 47.9557 40.8307 47.7135 40.4766 47.4375C40.1276 47.1562 39.8516 46.8307 39.6484 46.4609C39.4505 46.0911 39.3516 45.6615 39.3516 45.1719C39.3516 44.6979 39.4557 44.2682 39.6641 43.8828C39.8724 43.4922 40.1641 43.1589 40.5391 42.8828C40.9141 42.6016 41.3568 42.3854 41.8672 42.2344C42.3828 42.0833 42.9479 42.0078 43.5625 42.0078C44.401 42.0078 45.1328 42.1589 45.7578 42.4609C46.3828 42.763 46.8672 43.1771 47.2109 43.7031C47.5599 44.2292 47.7344 44.8307 47.7344 45.5078H45.4062C45.4062 45.1745 45.3359 44.8828 45.1953 44.6328C45.0599 44.3776 44.8516 44.1771 44.5703 44.0312C44.2943 43.8854 43.9453 43.8125 43.5234 43.8125C43.1172 43.8125 42.7786 43.875 42.5078 44C42.237 44.1198 42.0339 44.2839 41.8984 44.4922C41.763 44.6953 41.6953 44.9245 41.6953 45.1797C41.6953 45.3724 41.7422 45.5469 41.8359 45.7031C41.9349 45.8594 42.0807 46.0052 42.2734 46.1406C42.4661 46.276 42.7031 46.4036 42.9844 46.5234C43.2656 46.6432 43.5911 46.7604 43.9609 46.875C44.5807 47.0625 45.125 47.2734 45.5938 47.5078C46.0677 47.7422 46.4635 48.0052 46.7812 48.2969C47.099 48.5885 47.3385 48.9193 47.5 49.2891C47.6615 49.6589 47.7422 50.0781 47.7422 50.5469C47.7422 51.0417 47.6458 51.4844 47.4531 51.875C47.2604 52.2656 46.9818 52.5964 46.6172 52.8672C46.2526 53.138 45.8177 53.3438 45.3125 53.4844C44.8073 53.625 44.2422 53.6953 43.6172 53.6953C43.0547 53.6953 42.5 53.6224 41.9531 53.4766C41.4062 53.3255 40.9089 53.099 40.4609 52.7969C40.0182 52.4948 39.6641 52.1094 39.3984 51.6406C39.1328 51.1719 39 50.6172 39 49.9766H41.3516C41.3516 50.3307 41.4062 50.6302 41.5156 50.875C41.625 51.1198 41.7786 51.3177 41.9766 51.4688C42.1797 51.6198 42.4193 51.7292 42.6953 51.7969C42.9766 51.8646 43.2839 51.8984 43.6172 51.8984C44.0234 51.8984 44.3568 51.8411 44.6172 51.7266C44.8828 51.612 45.0781 51.4531 45.2031 51.25C45.3333 51.0469 45.3984 50.8177 45.3984 50.5625Z" fill="#333333"/>
<path d="M53.7656 49.4844H50.8672V47.6562H53.7656C54.2135 47.6562 54.5781 47.5833 54.8594 47.4375C55.1406 47.2865 55.3464 47.0781 55.4766 46.8125C55.6068 46.5469 55.6719 46.2474 55.6719 45.9141C55.6719 45.5755 55.6068 45.2604 55.4766 44.9688C55.3464 44.6771 55.1406 44.4427 54.8594 44.2656C54.5781 44.0885 54.2135 44 53.7656 44H51.6797V53.5391H49.3359V42.1641H53.7656C54.6562 42.1641 55.4193 42.3255 56.0547 42.6484C56.6953 42.9661 57.1849 43.4062 57.5234 43.9688C57.862 44.5312 58.0312 45.1745 58.0312 45.8984C58.0312 46.6328 57.862 47.2682 57.5234 47.8047C57.1849 48.3411 56.6953 48.7552 56.0547 49.0469C55.4193 49.3385 54.6562 49.4844 53.7656 49.4844Z" fill="#333333"/>
<path d="M62.9766 44.1094L59.8828 53.5391H57.3906L61.6172 42.1641H63.2031L62.9766 44.1094ZM65.5469 53.5391L62.4453 44.1094L62.1953 42.1641H63.7969L68.0469 53.5391H65.5469ZM65.4062 49.3047V51.1406H59.3984V49.3047H65.4062Z" fill="#333333"/>
<path d="M75.5547 49.7656H77.8906C77.8438 50.5312 77.6328 51.2109 77.2578 51.8047C76.888 52.3984 76.3698 52.862 75.7031 53.1953C75.0417 53.5286 74.2448 53.6953 73.3125 53.6953C72.5833 53.6953 71.9297 53.5703 71.3516 53.3203C70.7734 53.0651 70.2786 52.7005 69.8672 52.2266C69.4609 51.7526 69.151 51.1797 68.9375 50.5078C68.724 49.8359 68.6172 49.0833 68.6172 48.25V47.4609C68.6172 46.6276 68.7266 45.875 68.9453 45.2031C69.1693 44.526 69.487 43.9505 69.8984 43.4766C70.3151 43.0026 70.8125 42.638 71.3906 42.3828C71.9688 42.1276 72.6146 42 73.3281 42C74.276 42 75.0755 42.1719 75.7266 42.5156C76.3828 42.8594 76.8906 43.3333 77.25 43.9375C77.6146 44.5417 77.8333 45.2292 77.9062 46H75.5625C75.5365 45.5417 75.4453 45.1536 75.2891 44.8359C75.1328 44.513 74.8958 44.2708 74.5781 44.1094C74.2656 43.9427 73.849 43.8594 73.3281 43.8594C72.9375 43.8594 72.5964 43.9323 72.3047 44.0781C72.013 44.224 71.7682 44.4453 71.5703 44.7422C71.3724 45.0391 71.224 45.4141 71.125 45.8672C71.0312 46.3151 70.9844 46.8411 70.9844 47.4453V48.25C70.9844 48.8385 71.0286 49.3568 71.1172 49.8047C71.2057 50.2474 71.3411 50.6224 71.5234 50.9297C71.7109 51.2318 71.9505 51.4609 72.2422 51.6172C72.5391 51.7682 72.8958 51.8438 73.3125 51.8438C73.8021 51.8438 74.2057 51.7656 74.5234 51.6094C74.8411 51.4531 75.0833 51.2214 75.25 50.9141C75.4219 50.6068 75.5234 50.224 75.5547 49.7656Z" fill="#333333"/>
<path d="M87.0625 51.7109V53.5391H81.0078V51.7109H87.0625ZM81.7734 42.1641V53.5391H79.4297V42.1641H81.7734ZM86.2734 46.7969V48.5781H81.0078V46.7969H86.2734ZM87.0547 42.1641V44H81.0078V42.1641H87.0547Z" fill="#333333"/>
<path d="M23.3438 78.1562V89.5312H21V78.1562H23.3438ZM30.1562 78.1562L25.6484 83.7734L23.0469 86.5703L22.625 84.3516L24.3828 81.9453L27.2812 78.1562H30.1562ZM27.4922 89.5312L24.1406 84.2734L25.875 82.8203L30.2656 89.5312H27.4922Z" fill="#333333"/>
<path d="M38.8047 87.7031V89.5312H32.75V87.7031H38.8047ZM33.5156 78.1562V89.5312H31.1719V78.1562H33.5156ZM38.0156 82.7891V84.5703H32.75V82.7891H38.0156ZM38.7969 78.1562V79.9922H32.75V78.1562H38.7969Z" fill="#333333"/>
<path d="M41.7344 78.1562L44.1094 83.3438L46.4844 78.1562H49.0391L45.2969 85.3906V89.5312H42.9219V85.3906L39.1719 78.1562H41.7344Z" fill="#333333"/>
<path d="M58.5156 84.5391H55.5938L55.5781 82.9297H58.0312C58.4635 82.9297 58.8177 82.875 59.0938 82.7656C59.3698 82.651 59.5755 82.487 59.7109 82.2734C59.8516 82.0547 59.9219 81.7891 59.9219 81.4766C59.9219 81.1224 59.8542 80.8359 59.7188 80.6172C59.5885 80.3984 59.3828 80.2396 59.1016 80.1406C58.8255 80.0417 58.4688 79.9922 58.0312 79.9922H56.4062V89.5312H54.0625V78.1562H58.0312C58.6927 78.1562 59.2839 78.2188 59.8047 78.3438C60.3307 78.4688 60.776 78.6589 61.1406 78.9141C61.5052 79.1693 61.7839 79.4922 61.9766 79.8828C62.1693 80.2682 62.2656 80.7266 62.2656 81.2578C62.2656 81.7266 62.1589 82.1589 61.9453 82.5547C61.737 82.9505 61.4062 83.2734 60.9531 83.5234C60.5052 83.7734 59.9193 83.9115 59.1953 83.9375L58.5156 84.5391ZM58.4141 89.5312H54.9531L55.8672 87.7031H58.4141C58.8255 87.7031 59.1615 87.638 59.4219 87.5078C59.6823 87.3724 59.875 87.1901 60 86.9609C60.125 86.7318 60.1875 86.4688 60.1875 86.1719C60.1875 85.8385 60.1302 85.5495 60.0156 85.3047C59.9062 85.0599 59.7292 84.8724 59.4844 84.7422C59.2396 84.6068 58.9167 84.5391 58.5156 84.5391H56.2578L56.2734 82.9297H59.0859L59.625 83.5625C60.3177 83.5521 60.875 83.6745 61.2969 83.9297C61.724 84.1797 62.0339 84.5052 62.2266 84.9062C62.4245 85.3073 62.5234 85.737 62.5234 86.1953C62.5234 86.9245 62.3646 87.5391 62.0469 88.0391C61.7292 88.5339 61.263 88.9062 60.6484 89.1562C60.0391 89.4062 59.2943 89.5312 58.4141 89.5312Z" fill="#333333"/>
<path d="M73.625 83.5781V84.1172C73.625 84.9818 73.5078 85.7578 73.2734 86.4453C73.0391 87.1328 72.7083 87.7188 72.2812 88.2031C71.8542 88.6823 71.3438 89.0495 70.75 89.3047C70.1615 89.5599 69.5078 89.6875 68.7891 89.6875C68.0755 89.6875 67.4219 89.5599 66.8281 89.3047C66.2396 89.0495 65.7292 88.6823 65.2969 88.2031C64.8646 87.7188 64.5286 87.1328 64.2891 86.4453C64.0547 85.7578 63.9375 84.9818 63.9375 84.1172V83.5781C63.9375 82.7083 64.0547 81.9323 64.2891 81.25C64.5234 80.5625 64.8542 79.9766 65.2812 79.4922C65.7135 79.0078 66.224 78.638 66.8125 78.3828C67.4062 78.1276 68.0599 78 68.7734 78C69.4922 78 70.1458 78.1276 70.7344 78.3828C71.3281 78.638 71.8385 79.0078 72.2656 79.4922C72.6979 79.9766 73.0312 80.5625 73.2656 81.25C73.5052 81.9323 73.625 82.7083 73.625 83.5781ZM71.2578 84.1172V83.5625C71.2578 82.9583 71.2031 82.4271 71.0938 81.9688C70.9844 81.5104 70.8229 81.125 70.6094 80.8125C70.3958 80.5 70.1354 80.2656 69.8281 80.1094C69.5208 79.9479 69.1693 79.8672 68.7734 79.8672C68.3776 79.8672 68.026 79.9479 67.7188 80.1094C67.4167 80.2656 67.1589 80.5 66.9453 80.8125C66.737 81.125 66.5781 81.5104 66.4688 81.9688C66.3594 82.4271 66.3047 82.9583 66.3047 83.5625V84.1172C66.3047 84.7161 66.3594 85.2474 66.4688 85.7109C66.5781 86.1693 66.7396 86.5573 66.9531 86.875C67.1667 87.1875 67.4271 87.4245 67.7344 87.5859C68.0417 87.7474 68.3932 87.8281 68.7891 87.8281C69.1849 87.8281 69.5365 87.7474 69.8438 87.5859C70.151 87.4245 70.4089 87.1875 70.6172 86.875C70.8255 86.5573 70.9844 86.1693 71.0938 85.7109C71.2031 85.2474 71.2578 84.7161 71.2578 84.1172Z" fill="#333333"/>
<path d="M79.7656 80.1016L76.6719 89.5312H74.1797L78.4062 78.1562H79.9922L79.7656 80.1016ZM82.3359 89.5312L79.2344 80.1016L78.9844 78.1562H80.5859L84.8359 89.5312H82.3359ZM82.1953 85.2969V87.1328H76.1875V85.2969H82.1953Z" fill="#333333"/>
<path d="M85.8906 78.1562H90.1328C91.0026 78.1562 91.75 78.2865 92.375 78.5469C93.0052 78.8073 93.4896 79.1927 93.8281 79.7031C94.1667 80.2135 94.3359 80.8411 94.3359 81.5859C94.3359 82.1953 94.2318 82.7188 94.0234 83.1562C93.8203 83.5885 93.5312 83.9505 93.1562 84.2422C92.7865 84.5286 92.3516 84.7578 91.8516 84.9297L91.1094 85.3203H87.4219L87.4062 83.4922H90.1484C90.5599 83.4922 90.901 83.4193 91.1719 83.2734C91.4427 83.1276 91.6458 82.9245 91.7812 82.6641C91.9219 82.4036 91.9922 82.1016 91.9922 81.7578C91.9922 81.3932 91.9245 81.0781 91.7891 80.8125C91.6536 80.5469 91.4479 80.3438 91.1719 80.2031C90.8958 80.0625 90.5495 79.9922 90.1328 79.9922H88.2344V89.5312H85.8906V78.1562ZM92.25 89.5312L89.6562 84.4609L92.1328 84.4453L94.7578 89.4219V89.5312H92.25Z" fill="#333333"/>
<path d="M99.6328 89.5312H97.1562L97.1719 87.7031H99.6328C100.247 87.7031 100.766 87.5651 101.188 87.2891C101.609 87.0078 101.927 86.599 102.141 86.0625C102.359 85.526 102.469 84.8776 102.469 84.1172V83.5625C102.469 82.9792 102.406 82.4661 102.281 82.0234C102.161 81.5807 101.982 81.2083 101.742 80.9062C101.503 80.6042 101.208 80.3776 100.859 80.2266C100.51 80.0703 100.109 79.9922 99.6562 79.9922H97.1094V78.1562H99.6562C100.417 78.1562 101.112 78.2865 101.742 78.5469C102.378 78.8021 102.927 79.1693 103.391 79.6484C103.854 80.1276 104.211 80.7005 104.461 81.3672C104.716 82.0286 104.844 82.7656 104.844 83.5781V84.1172C104.844 84.9245 104.716 85.6615 104.461 86.3281C104.211 86.9948 103.854 87.5677 103.391 88.0469C102.932 88.5208 102.383 88.888 101.742 89.1484C101.107 89.4036 100.404 89.5312 99.6328 89.5312ZM98.4844 78.1562V89.5312H96.1406V78.1562H98.4844Z" fill="#333333"/>
<path d="M48.5859 13.9453L45.4922 23.375H43L47.2266 12H48.8125L48.5859 13.9453ZM51.1562 23.375L48.0547 13.9453L47.8047 12H49.4062L53.6562 23.375H51.1562ZM51.0156 19.1406V20.9766H45.0078V19.1406H51.0156Z" fill="#333333"/>
<path d="M80.3984 20.5547C80.3984 20.3516 80.3672 20.1693 80.3047 20.0078C80.2474 19.8411 80.138 19.6901 79.9766 19.5547C79.8151 19.4141 79.5885 19.276 79.2969 19.1406C79.0052 19.0052 78.6276 18.8646 78.1641 18.7188C77.6484 18.5521 77.1589 18.3646 76.6953 18.1562C76.237 17.9479 75.8307 17.7057 75.4766 17.4297C75.1276 17.1484 74.8516 16.8229 74.6484 16.4531C74.4505 16.0833 74.3516 15.6536 74.3516 15.1641C74.3516 14.6901 74.4557 14.2604 74.6641 13.875C74.8724 13.4844 75.1641 13.151 75.5391 12.875C75.9141 12.5938 76.3568 12.3776 76.8672 12.2266C77.3828 12.0755 77.9479 12 78.5625 12C79.401 12 80.1328 12.151 80.7578 12.4531C81.3828 12.7552 81.8672 13.1693 82.2109 13.6953C82.5599 14.2214 82.7344 14.8229 82.7344 15.5H80.4062C80.4062 15.1667 80.3359 14.875 80.1953 14.625C80.0599 14.3698 79.8516 14.1693 79.5703 14.0234C79.2943 13.8776 78.9453 13.8047 78.5234 13.8047C78.1172 13.8047 77.7786 13.8672 77.5078 13.9922C77.237 14.112 77.0339 14.276 76.8984 14.4844C76.763 14.6875 76.6953 14.9167 76.6953 15.1719C76.6953 15.3646 76.7422 15.5391 76.8359 15.6953C76.9349 15.8516 77.0807 15.9974 77.2734 16.1328C77.4661 16.2682 77.7031 16.3958 77.9844 16.5156C78.2656 16.6354 78.5911 16.7526 78.9609 16.8672C79.5807 17.0547 80.125 17.2656 80.5938 17.5C81.0677 17.7344 81.4635 17.9974 81.7812 18.2891C82.099 18.5807 82.3385 18.9115 82.5 19.2812C82.6615 19.651 82.7422 20.0703 82.7422 20.5391C82.7422 21.0339 82.6458 21.4766 82.4531 21.8672C82.2604 22.2578 81.9818 22.5885 81.6172 22.8594C81.2526 23.1302 80.8177 23.3359 80.3125 23.4766C79.8073 23.6172 79.2422 23.6875 78.6172 23.6875C78.0547 23.6875 77.5 23.6146 76.9531 23.4688C76.4062 23.3177 75.9089 23.0911 75.4609 22.7891C75.0182 22.487 74.6641 22.1016 74.3984 21.6328C74.1328 21.1641 74 20.6094 74 19.9688H76.3516C76.3516 20.3229 76.4062 20.6224 76.5156 20.8672C76.625 21.112 76.7786 21.3099 76.9766 21.4609C77.1797 21.612 77.4193 21.7214 77.6953 21.7891C77.9766 21.8568 78.2839 21.8906 78.6172 21.8906C79.0234 21.8906 79.3568 21.8333 79.6172 21.7188C79.8828 21.6042 80.0781 21.4453 80.2031 21.2422C80.3333 21.0391 80.3984 20.8099 80.3984 20.5547Z" fill="#333333"/>
<path d="M107.492 23.375H105.016L105.031 21.5469H107.492C108.107 21.5469 108.625 21.4089 109.047 21.1328C109.469 20.8516 109.786 20.4427 110 19.9062C110.219 19.3698 110.328 18.7214 110.328 17.9609V17.4062C110.328 16.8229 110.266 16.3099 110.141 15.8672C110.021 15.4245 109.841 15.0521 109.602 14.75C109.362 14.4479 109.068 14.2214 108.719 14.0703C108.37 13.9141 107.969 13.8359 107.516 13.8359H104.969V12H107.516C108.276 12 108.971 12.1302 109.602 12.3906C110.237 12.6458 110.786 13.013 111.25 13.4922C111.714 13.9714 112.07 14.5443 112.32 15.2109C112.576 15.8724 112.703 16.6094 112.703 17.4219V17.9609C112.703 18.7682 112.576 19.5052 112.32 20.1719C112.07 20.8385 111.714 21.4115 111.25 21.8906C110.792 22.3646 110.242 22.7318 109.602 22.9922C108.966 23.2474 108.263 23.375 107.492 23.375ZM106.344 12V23.375H104V12H106.344Z" fill="#333333"/>
<mask id="path-7-inside-1_211_24" fill="white">
<path d="M0 2C0 0.895431 0.895431 0 2 0H36V36H0V2Z"/>
</mask>
<path d="M0 2C0 0.895431 0.895431 0 2 0H36V36H0V2Z" stroke="#333333" stroke-width="12" mask="url(#path-7-inside-1_211_24)"/>
<rect x="33" y="3" width="30" height="30" stroke="#333333" stroke-width="6"/>
<rect x="63" y="3" width="30" height="30" stroke="#333333" stroke-width="6"/>
<mask id="path-10-inside-2_211_24" fill="white">
<path d="M90 0H124C125.105 0 126 0.895431 126 2V36H90V0Z"/>
</mask>
<path d="M90 0H124C125.105 0 126 0.895431 126 2V36H90V0Z" stroke="#333333" stroke-width="12" mask="url(#path-10-inside-2_211_24)"/>
<mask id="path-11-inside-3_211_24" fill="white">
<path d="M0 30H126V64C126 65.1046 125.105 66 124 66H2C0.89543 66 0 65.1046 0 64V30Z"/>
</mask>
<path d="M0 30H126V64C126 65.1046 125.105 66 124 66H2C0.89543 66 0 65.1046 0 64V30Z" stroke="#333333" stroke-width="12" mask="url(#path-11-inside-3_211_24)"/>
</svg>
