{"asset":{"version":"2.0","generator":"babylon.js glTF exporter for 3dsmax 2021 v20211112.3"},"scene":0,"scenes":[{"nodes":[0]}],"nodes":[{"mesh":0,"translation":[0.0399002433,0.0,-0.0423940159],"name":"Rectangle002"}],"meshes":[{"primitives":[{"attributes":{"POSITION":1,"NORMAL":2,"TEXCOORD_0":3},"indices":0,"material":0}],"name":"Rectangle002"}],"accessors":[{"bufferView":0,"componentType":5123,"count":72,"type":"SCALAR","name":"accessorIndices"},{"bufferView":1,"componentType":5126,"count":42,"max":[0.783117354,0.01,0.3840399],"min":[-0.4862843,0.0,-0.3840399],"type":"VEC3","name":"accessorPositions"},{"bufferView":1,"byteOffset":504,"componentType":5126,"count":42,"type":"VEC3","name":"accessorNormals"},{"bufferView":2,"componentType":5126,"count":42,"type":"VEC2","name":"accessorUVs"}],"bufferViews":[{"buffer":0,"byteLength":144,"name":"bufferViewScalar"},{"buffer":0,"byteOffset":144,"byteLength":1008,"byteStride":12,"name":"bufferViewFloatVec3"},{"buffer":0,"byteOffset":1152,"byteLength":336,"byteStride":8,"name":"bufferViewFloatVec2"}],"buffers":[{"uri":"arrow.bin","byteLength":1488}],"materials":[{"pbrMetallicRoughness":{"baseColorTexture":{"index":0},"metallicFactor":0.0,"roughnessFactor":0.0},"doubleSided":true,"name":"Material #25","extras":{"babylonSeparateCullingPass":false}}],"textures":[{"sampler":0,"source":0,"name":"arrow.jpg"}],"images":[{"uri":"arrow.jpg"}],"samplers":[{"magFilter":9729,"minFilter":9987}]}