{"asset":{"version":"2.0","generator":"babylon.js glTF exporter for 3dsmax 2021 v20211112.3"},"extensionsUsed":["KHR_materials_pbrSpecularGlossiness"],"scene":0,"scenes":[{"nodes":[0]}],"nodes":[{"mesh":0,"translation":[-21.75084,8.389258,2.30737424],"name":"Rectangle001"}],"meshes":[{"primitives":[{"attributes":{"POSITION":1,"NORMAL":2,"TEXCOORD_0":3,"TEXCOORD_1":4},"indices":0,"material":0},{"attributes":{"POSITION":6,"NORMAL":7,"TEXCOORD_0":8,"TEXCOORD_1":9},"indices":5,"material":1},{"attributes":{"POSITION":11,"NORMAL":12,"TEXCOORD_0":13,"TEXCOORD_1":14},"indices":10,"material":2},{"attributes":{"POSITION":16,"NORMAL":17,"TEXCOORD_0":18,"TEXCOORD_1":19},"indices":15,"material":3},{"attributes":{"POSITION":21,"NORMAL":22,"TEXCOORD_0":23,"TEXCOORD_1":24},"indices":20,"material":4},{"attributes":{"POSITION":26,"NORMAL":27,"TEXCOORD_0":28,"TEXCOORD_1":29},"indices":25,"material":5},{"attributes":{"POSITION":31,"NORMAL":32,"TEXCOORD_0":33,"TEXCOORD_1":34},"indices":30,"material":6},{"attributes":{"POSITION":36,"NORMAL":37,"TEXCOORD_0":38,"TEXCOORD_1":39},"indices":35,"material":7},{"attributes":{"POSITION":41,"NORMAL":42,"TEXCOORD_0":43,"TEXCOORD_1":44},"indices":40,"material":8},{"attributes":{"POSITION":46,"NORMAL":47,"TEXCOORD_0":48,"TEXCOORD_1":49},"indices":45,"material":9},{"attributes":{"POSITION":51,"NORMAL":52,"TEXCOORD_0":53,"TEXCOORD_1":54},"indices":50,"material":10}],"name":"Rectangle001"}],"accessors":[{"bufferView":0,"componentType":5123,"count":9504,"type":"SCALAR","name":"accessorIndices"},{"bufferView":1,"componentType":5126,"count":3920,"max":[18.9998417,0.505579233,20.041975],"min":[-18.9998417,-7.39791346,-20.0],"type":"VEC3","name":"accessorPositions"},{"bufferView":1,"byteOffset":47040,"componentType":5126,"count":3920,"type":"VEC3","name":"accessorNormals"},{"bufferView":2,"componentType":5126,"count":3920,"type":"VEC2","name":"accessorUVs"},{"bufferView":2,"byteOffset":31360,"componentType":5126,"count":3920,"type":"VEC2","name":"accessorUV2s"},{"bufferView":0,"byteOffset":19008,"componentType":5123,"count":36,"type":"SCALAR","name":"accessorIndices"},{"bufferView":1,"byteOffset":94080,"componentType":5126,"count":24,"max":[18.0,-7.39791441,20.0],"min":[-18.0,-8.389258,-20.0],"type":"VEC3","name":"accessorPositions"},{"bufferView":1,"byteOffset":94368,"componentType":5126,"count":24,"type":"VEC3","name":"accessorNormals"},{"bufferView":2,"byteOffset":62720,"componentType":5126,"count":24,"type":"VEC2","name":"accessorUVs"},{"bufferView":2,"byteOffset":62912,"componentType":5126,"count":24,"type":"VEC2","name":"accessorUV2s"},{"bufferView":0,"byteOffset":19080,"componentType":5123,"count":324,"type":"SCALAR","name":"accessorIndices"},{"bufferView":1,"byteOffset":94656,"componentType":5126,"count":120,"max":[2.15383053,-7.32718229,3.19025731],"min":[-4.44616938,-7.33718252,-3.40974259],"type":"VEC3","name":"accessorPositions"},{"bufferView":1,"byteOffset":96096,"componentType":5126,"count":120,"type":"VEC3","name":"accessorNormals"},{"bufferView":2,"byteOffset":63104,"componentType":5126,"count":120,"type":"VEC2","name":"accessorUVs"},{"bufferView":2,"byteOffset":64064,"componentType":5126,"count":120,"type":"VEC2","name":"accessorUV2s"},{"bufferView":0,"byteOffset":19728,"componentType":5123,"count":672,"type":"SCALAR","name":"accessorIndices"},{"bufferView":1,"byteOffset":97536,"componentType":5126,"count":224,"max":[4.37429953,-7.34925747,10.34521],"min":[-11.2993689,-7.39925766,-9.971945],"type":"VEC3","name":"accessorPositions"},{"bufferView":1,"byteOffset":100224,"componentType":5126,"count":224,"type":"VEC3","name":"accessorNormals"},{"bufferView":2,"byteOffset":65024,"componentType":5126,"count":224,"type":"VEC2","name":"accessorUVs"},{"bufferView":2,"byteOffset":66816,"componentType":5126,"count":224,"type":"VEC2","name":"accessorUV2s"},{"bufferView":0,"byteOffset":21072,"componentType":5123,"count":44502,"type":"SCALAR","name":"accessorIndices"},{"bufferView":1,"byteOffset":102912,"componentType":5126,"count":8242,"max":[4.534961,-5.68532753,-2.471518],"min":[3.95433927,-7.389259,-2.96687269],"type":"VEC3","name":"accessorPositions"},{"bufferView":1,"byteOffset":201816,"componentType":5126,"count":8242,"type":"VEC3","name":"accessorNormals"},{"bufferView":2,"byteOffset":68608,"componentType":5126,"count":8242,"type":"VEC2","name":"accessorUVs"},{"bufferView":2,"byteOffset":134544,"componentType":5126,"count":8242,"type":"VEC2","name":"accessorUV2s"},{"bufferView":0,"byteOffset":110076,"componentType":5123,"count":24,"type":"SCALAR","name":"accessorIndices"},{"bufferView":1,"byteOffset":300720,"componentType":5126,"count":9,"max":[2.67281461,-3.69791365,10.2721138],"min":[-2.92718458,-6.89791346,10.2721119],"type":"VEC3","name":"accessorPositions"},{"bufferView":1,"byteOffset":300828,"componentType":5126,"count":9,"type":"VEC3","name":"accessorNormals"},{"bufferView":2,"byteOffset":200480,"componentType":5126,"count":9,"type":"VEC2","name":"accessorUVs"},{"bufferView":2,"byteOffset":200552,"componentType":5126,"count":9,"type":"VEC2","name":"accessorUV2s"},{"bufferView":0,"byteOffset":110124,"componentType":5123,"count":24,"type":"SCALAR","name":"accessorIndices"},{"bufferView":1,"byteOffset":300936,"componentType":5126,"count":9,"max":[-4.705513,-3.69791365,10.2721224],"min":[-10.3055124,-6.89791346,10.27212],"type":"VEC3","name":"accessorPositions"},{"bufferView":1,"byteOffset":301044,"componentType":5126,"count":9,"type":"VEC3","name":"accessorNormals"},{"bufferView":2,"byteOffset":200624,"componentType":5126,"count":9,"type":"VEC2","name":"accessorUVs"},{"bufferView":2,"byteOffset":200696,"componentType":5126,"count":9,"type":"VEC2","name":"accessorUV2s"},{"bufferView":0,"byteOffset":110172,"componentType":5123,"count":6696,"type":"SCALAR","name":"accessorIndices"},{"bufferView":1,"byteOffset":301152,"componentType":5126,"count":1527,"max":[18.9998417,-7.28811264,20.041975],"min":[-18.9998417,-8.389258,-19.9577312],"type":"VEC3","name":"accessorPositions"},{"bufferView":1,"byteOffset":319476,"componentType":5126,"count":1527,"type":"VEC3","name":"accessorNormals"},{"bufferView":2,"byteOffset":200768,"componentType":5126,"count":1527,"type":"VEC2","name":"accessorUVs"},{"bufferView":2,"byteOffset":212984,"componentType":5126,"count":1527,"type":"VEC2","name":"accessorUV2s"},{"bufferView":0,"byteOffset":123564,"componentType":5123,"count":624,"type":"SCALAR","name":"accessorIndices"},{"bufferView":1,"byteOffset":337800,"componentType":5126,"count":224,"max":[3.27947021,-0.5299994,4.141417],"min":[-5.41210461,-0.5299994,-4.40970373],"type":"VEC3","name":"accessorPositions"},{"bufferView":1,"byteOffset":340488,"componentType":5126,"count":224,"type":"VEC3","name":"accessorNormals"},{"bufferView":2,"byteOffset":225200,"componentType":5126,"count":224,"type":"VEC2","name":"accessorUVs"},{"bufferView":2,"byteOffset":226992,"componentType":5126,"count":224,"type":"VEC2","name":"accessorUV2s"},{"bufferView":0,"byteOffset":124812,"componentType":5123,"count":2880,"type":"SCALAR","name":"accessorIndices"},{"bufferView":1,"byteOffset":343176,"componentType":5126,"count":559,"max":[14.17555,-5.39357042,9.842823],"min":[12.17555,-7.39357042,7.84282351],"type":"VEC3","name":"accessorPositions"},{"bufferView":1,"byteOffset":349884,"componentType":5126,"count":559,"type":"VEC3","name":"accessorNormals"},{"bufferView":2,"byteOffset":228784,"componentType":5126,"count":559,"type":"VEC2","name":"accessorUVs"},{"bufferView":2,"byteOffset":233256,"componentType":5126,"count":559,"type":"VEC2","name":"accessorUV2s"},{"bufferView":0,"byteOffset":130572,"componentType":5123,"count":2880,"type":"SCALAR","name":"accessorIndices"},{"bufferView":1,"byteOffset":356592,"componentType":5126,"count":559,"max":[10.0308237,-6.39386225,-6.5627346],"min":[9.030824,-7.39386225,-7.5627346],"type":"VEC3","name":"accessorPositions"},{"bufferView":1,"byteOffset":363300,"componentType":5126,"count":559,"type":"VEC3","name":"accessorNormals"},{"bufferView":2,"byteOffset":237728,"componentType":5126,"count":559,"type":"VEC2","name":"accessorUVs"},{"bufferView":2,"byteOffset":242200,"componentType":5126,"count":559,"type":"VEC2","name":"accessorUV2s"}],"bufferViews":[{"buffer":0,"byteLength":136332,"name":"bufferViewScalar"},{"buffer":0,"byteOffset":136332,"byteLength":370008,"byteStride":12,"name":"bufferViewFloatVec3"},{"buffer":0,"byteOffset":506340,"byteLength":246672,"byteStride":8,"name":"bufferViewFloatVec2"}],"buffers":[{"uri":"211229_export_01.bin","byteLength":753012}],"materials":[{"pbrMetallicRoughness":{"metallicFactor":0.0,"roughnessFactor":0.0},"doubleSided":true,"name":"Material #396","extras":{"babylonSeparateCullingPass":false}},{"pbrMetallicRoughness":{"baseColorTexture":{"index":0},"metallicFactor":0.2,"roughnessFactor":0.0},"doubleSided":true,"name":"Material #504","extras":{"babylonSeparateCullingPass":false}},{"pbrMetallicRoughness":{"baseColorTexture":{"index":1},"metallicFactor":0.0,"roughnessFactor":0.450053632},"name":"Material #473"},{"doubleSided":true,"name":"Material #505","extensions":{"KHR_materials_pbrSpecularGlossiness":{"specularFactor":[0.0,0.0,0.0],"glossinessFactor":0.0}},"extras":{"babylonSeparateCullingPass":false}},{"pbrMetallicRoughness":{"baseColorTexture":{"index":2},"metallicFactor":0.0,"roughnessFactor":0.450053632},"name":"Material #479"},{"pbrMetallicRoughness":{"baseColorTexture":{"index":3},"metallicFactor":0.0,"roughnessFactor":0.0},"doubleSided":true,"name":"Material #452","extras":{"babylonSeparateCullingPass":false}},{"pbrMetallicRoughness":{"baseColorTexture":{"index":4},"metallicFactor":0.0,"roughnessFactor":0.0},"doubleSided":true,"name":"Material #501","extras":{"babylonSeparateCullingPass":false}},{"doubleSided":true,"name":"Material #454","extensions":{"KHR_materials_pbrSpecularGlossiness":{"specularFactor":[0.0,0.0,0.0],"glossinessFactor":0.0}},"extras":{"babylonSeparateCullingPass":false}},{"pbrMetallicRoughness":{"baseColorFactor":[0.9411765,0.670588255,0.490196079,1.0],"metallicFactor":0.0,"roughnessFactor":0.450053632},"emissiveFactor":[0.29958576,0.213454857,0.156034246],"name":"Material #518"},{"pbrMetallicRoughness":{"baseColorFactor":[1.0,0.0431372561,0.0431372561,1.0],"roughnessFactor":0.0},"doubleSided":true,"name":"Material #503","extras":{"babylonSeparateCullingPass":false}},{"pbrMetallicRoughness":{"baseColorFactor":[0.09411765,0.137254909,1.0,1.0],"roughnessFactor":0.0},"doubleSided":true,"name":"Material #418","extras":{"babylonSeparateCullingPass":false}}],"textures":[{"sampler":0,"source":0,"name":"concrete3.jpg"},{"sampler":0,"source":1,"name":"grass_01.jpg"},{"sampler":0,"source":2,"name":"Jess_Casual_Walking_001_D.png"},{"sampler":0,"source":3,"name":"210820_kinetica_final_01.mp4_000043943.png"},{"sampler":0,"source":4,"name":"210725_JY_01_01.mp4_000027093.png"}],"images":[{"uri":"concrete3.jpg"},{"uri":"grass_01.jpg"},{"uri":"Jess_Casual_Walking_001_D.png"},{"uri":"210820_kinetica_final_01.mp4_000043943.png"},{"uri":"210725_JY_01_01.mp4_000027093.png"}],"samplers":[{"magFilter":9729,"minFilter":9987}]}