<svg width="59" height="90" viewBox="0 0 59 90" fill="none" xmlns="http://www.w3.org/2000/svg">
<rect x="9.98438" y="3" width="38" height="60" rx="17" stroke="#333333" stroke-width="6"/>
<rect x="25.9844" y="18" width="6" height="10" rx="3" fill="#333333"/>
<path d="M6.39844 86.5625C6.39844 86.3594 6.36719 86.1771 6.30469 86.0156C6.2474 85.849 6.13802 85.6979 5.97656 85.5625C5.8151 85.4219 5.58854 85.2839 5.29688 85.1484C5.00521 85.013 4.6276 84.8724 4.16406 84.7266C3.64844 84.5599 3.15885 84.3724 2.69531 84.1641C2.23698 83.9557 1.83073 83.7135 1.47656 83.4375C1.1276 83.1562 0.851562 82.8307 0.648438 82.4609C0.450521 82.0911 0.351562 81.6615 0.351562 81.1719C0.351562 80.6979 0.455729 80.2682 0.664062 79.8828C0.872396 79.4922 1.16406 79.1589 1.53906 78.8828C1.91406 78.6016 2.35677 78.3854 2.86719 78.2344C3.38281 78.0833 3.94792 78.0078 4.5625 78.0078C5.40104 78.0078 6.13281 78.1589 6.75781 78.4609C7.38281 78.763 7.86719 79.1771 8.21094 79.7031C8.5599 80.2292 8.73438 80.8307 8.73438 81.5078H6.40625C6.40625 81.1745 6.33594 80.8828 6.19531 80.6328C6.0599 80.3776 5.85156 80.1771 5.57031 80.0312C5.29427 79.8854 4.94531 79.8125 4.52344 79.8125C4.11719 79.8125 3.77865 79.875 3.50781 80C3.23698 80.1198 3.03385 80.2839 2.89844 80.4922C2.76302 80.6953 2.69531 80.9245 2.69531 81.1797C2.69531 81.3724 2.74219 81.5469 2.83594 81.7031C2.9349 81.8594 3.08073 82.0052 3.27344 82.1406C3.46615 82.276 3.70312 82.4036 3.98438 82.5234C4.26562 82.6432 4.59115 82.7604 4.96094 82.875C5.58073 83.0625 6.125 83.2734 6.59375 83.5078C7.06771 83.7422 7.46354 84.0052 7.78125 84.2969C8.09896 84.5885 8.33854 84.9193 8.5 85.2891C8.66146 85.6589 8.74219 86.0781 8.74219 86.5469C8.74219 87.0417 8.64583 87.4844 8.45312 87.875C8.26042 88.2656 7.98177 88.5964 7.61719 88.8672C7.2526 89.138 6.81771 89.3438 6.3125 89.4844C5.80729 89.625 5.24219 89.6953 4.61719 89.6953C4.05469 89.6953 3.5 89.6224 2.95312 89.4766C2.40625 89.3255 1.90885 89.099 1.46094 88.7969C1.01823 88.4948 0.664062 88.1094 0.398438 87.6406C0.132812 87.1719 0 86.6172 0 85.9766H2.35156C2.35156 86.3307 2.40625 86.6302 2.51562 86.875C2.625 87.1198 2.77865 87.3177 2.97656 87.4688C3.17969 87.6198 3.41927 87.7292 3.69531 87.7969C3.97656 87.8646 4.28385 87.8984 4.61719 87.8984C5.02344 87.8984 5.35677 87.8411 5.61719 87.7266C5.88281 87.612 6.07812 87.4531 6.20312 87.25C6.33333 87.0469 6.39844 86.8177 6.39844 86.5625Z" fill="#333333"/>
<path d="M16.9297 85.7656H19.2656C19.2188 86.5312 19.0078 87.2109 18.6328 87.8047C18.263 88.3984 17.7448 88.862 17.0781 89.1953C16.4167 89.5286 15.6198 89.6953 14.6875 89.6953C13.9583 89.6953 13.3047 89.5703 12.7266 89.3203C12.1484 89.0651 11.6536 88.7005 11.2422 88.2266C10.8359 87.7526 10.526 87.1797 10.3125 86.5078C10.099 85.8359 9.99219 85.0833 9.99219 84.25V83.4609C9.99219 82.6276 10.1016 81.875 10.3203 81.2031C10.5443 80.526 10.862 79.9505 11.2734 79.4766C11.6901 79.0026 12.1875 78.638 12.7656 78.3828C13.3438 78.1276 13.9896 78 14.7031 78C15.651 78 16.4505 78.1719 17.1016 78.5156C17.7578 78.8594 18.2656 79.3333 18.625 79.9375C18.9896 80.5417 19.2083 81.2292 19.2812 82H16.9375C16.9115 81.5417 16.8203 81.1536 16.6641 80.8359C16.5078 80.513 16.2708 80.2708 15.9531 80.1094C15.6406 79.9427 15.224 79.8594 14.7031 79.8594C14.3125 79.8594 13.9714 79.9323 13.6797 80.0781C13.388 80.224 13.1432 80.4453 12.9453 80.7422C12.7474 81.0391 12.599 81.4141 12.5 81.8672C12.4062 82.3151 12.3594 82.8411 12.3594 83.4453V84.25C12.3594 84.8385 12.4036 85.3568 12.4922 85.8047C12.5807 86.2474 12.7161 86.6224 12.8984 86.9297C13.0859 87.2318 13.3255 87.4609 13.6172 87.6172C13.9141 87.7682 14.2708 87.8438 14.6875 87.8438C15.1771 87.8438 15.5807 87.7656 15.8984 87.6094C16.2161 87.4531 16.4583 87.2214 16.625 86.9141C16.7969 86.6068 16.8984 86.224 16.9297 85.7656Z" fill="#333333"/>
<path d="M20.8047 78.1641H25.0469C25.9167 78.1641 26.6641 78.2943 27.2891 78.5547C27.9193 78.8151 28.4036 79.2005 28.7422 79.7109C29.0807 80.2214 29.25 80.849 29.25 81.5938C29.25 82.2031 29.1458 82.7266 28.9375 83.1641C28.7344 83.5964 28.4453 83.9583 28.0703 84.25C27.7005 84.5365 27.2656 84.7656 26.7656 84.9375L26.0234 85.3281H22.3359L22.3203 83.5H25.0625C25.474 83.5 25.8151 83.4271 26.0859 83.2812C26.3568 83.1354 26.5599 82.9323 26.6953 82.6719C26.8359 82.4115 26.9062 82.1094 26.9062 81.7656C26.9062 81.401 26.8385 81.0859 26.7031 80.8203C26.5677 80.5547 26.362 80.3516 26.0859 80.2109C25.8099 80.0703 25.4635 80 25.0469 80H23.1484V89.5391H20.8047V78.1641ZM27.1641 89.5391L24.5703 84.4688L27.0469 84.4531L29.6719 89.4297V89.5391H27.1641Z" fill="#333333"/>
<path d="M40.3984 83.5859V84.125C40.3984 84.9896 40.2812 85.7656 40.0469 86.4531C39.8125 87.1406 39.4818 87.7266 39.0547 88.2109C38.6276 88.6901 38.1172 89.0573 37.5234 89.3125C36.9349 89.5677 36.2812 89.6953 35.5625 89.6953C34.849 89.6953 34.1953 89.5677 33.6016 89.3125C33.013 89.0573 32.5026 88.6901 32.0703 88.2109C31.638 87.7266 31.3021 87.1406 31.0625 86.4531C30.8281 85.7656 30.7109 84.9896 30.7109 84.125V83.5859C30.7109 82.7161 30.8281 81.9401 31.0625 81.2578C31.2969 80.5703 31.6276 79.9844 32.0547 79.5C32.487 79.0156 32.9974 78.6458 33.5859 78.3906C34.1797 78.1354 34.8333 78.0078 35.5469 78.0078C36.2656 78.0078 36.9193 78.1354 37.5078 78.3906C38.1016 78.6458 38.612 79.0156 39.0391 79.5C39.4714 79.9844 39.8047 80.5703 40.0391 81.2578C40.2786 81.9401 40.3984 82.7161 40.3984 83.5859ZM38.0312 84.125V83.5703C38.0312 82.9661 37.9766 82.4349 37.8672 81.9766C37.7578 81.5182 37.5964 81.1328 37.3828 80.8203C37.1693 80.5078 36.9089 80.2734 36.6016 80.1172C36.2943 79.9557 35.9427 79.875 35.5469 79.875C35.151 79.875 34.7995 79.9557 34.4922 80.1172C34.1901 80.2734 33.9323 80.5078 33.7188 80.8203C33.5104 81.1328 33.3516 81.5182 33.2422 81.9766C33.1328 82.4349 33.0781 82.9661 33.0781 83.5703V84.125C33.0781 84.724 33.1328 85.2552 33.2422 85.7188C33.3516 86.1771 33.513 86.5651 33.7266 86.8828C33.9401 87.1953 34.2005 87.4323 34.5078 87.5938C34.8151 87.7552 35.1667 87.8359 35.5625 87.8359C35.9583 87.8359 36.3099 87.7552 36.6172 87.5938C36.9245 87.4323 37.1823 87.1953 37.3906 86.8828C37.599 86.5651 37.7578 86.1771 37.8672 85.7188C37.9766 85.2552 38.0312 84.724 38.0312 84.125Z" fill="#333333"/>
<path d="M49.3984 87.7109V89.5391H43.6719V87.7109H49.3984ZM44.4297 78.1641V89.5391H42.0859V78.1641H44.4297Z" fill="#333333"/>
<path d="M58.0547 87.7109V89.5391H52.3281V87.7109H58.0547ZM53.0859 78.1641V89.5391H50.7422V78.1641H53.0859Z" fill="#333333"/>
</svg>
