<svg width="44" height="465" viewBox="0 0 44 465" fill="none" xmlns="http://www.w3.org/2000/svg">
<rect opacity="0.2" y="399" width="44" height="66" rx="20" fill="#F2F2F2"/>
<rect x="3" y="402" width="38" height="60" rx="17" stroke="#F2F2F2" stroke-width="6"/>
<rect x="19" y="417" width="6" height="10" rx="3" fill="#F2F2F2"/>
<rect opacity="0.2" width="44" height="375" rx="5" fill="#F2F2F2"/>
<rect opacity="0.2" x="2" y="2" width="40" height="371" rx="3" stroke="#F2F2F2" stroke-width="4"/>
<rect opacity="0.4" x="9" y="17.5" width="26" height="5" rx="2.5" fill="#F2F2F2"/>
<rect opacity="0.2" x="11" y="30" width="21" height="5" rx="2.5" fill="#F2F2F2"/>
<rect opacity="0.2" x="11" y="42.5" width="21" height="5" rx="2.5" fill="#F2F2F2"/>
<rect opacity="0.4" x="9" y="55" width="26" height="5" rx="2.5" fill="#F2F2F2"/>
<rect opacity="0.2" x="11" y="67.5" width="21" height="5" rx="2.5" fill="#F2F2F2"/>
<rect opacity="0.2" x="11" y="80" width="21" height="5" rx="2.5" fill="#F2F2F2"/>
<rect opacity="0.4" x="9" y="92.5" width="26" height="5" rx="2.5" fill="#F2F2F2"/>
<rect opacity="0.2" x="11" y="105" width="21" height="5" rx="2.5" fill="#F2F2F2"/>
<rect opacity="0.2" x="11" y="117.5" width="21" height="5" rx="2.5" fill="#F2F2F2"/>
<rect opacity="0.4" x="9" y="130" width="26" height="5" rx="2.5" fill="#F2F2F2"/>
<rect opacity="0.2" x="11" y="142.5" width="21" height="5" rx="2.5" fill="#F2F2F2"/>
<rect opacity="0.2" x="11" y="155" width="21" height="5" rx="2.5" fill="#F2F2F2"/>
<rect opacity="0.4" x="9" y="167.5" width="26" height="5" rx="2.5" fill="#F2F2F2"/>
<rect opacity="0.2" x="11" y="180" width="21" height="5" rx="2.5" fill="#F2F2F2"/>
<rect opacity="0.2" x="11" y="192.5" width="21" height="5" rx="2.5" fill="#F2F2F2"/>
<rect opacity="0.4" x="9" y="205" width="26" height="5" rx="2.5" fill="#F2F2F2"/>
<rect opacity="0.2" x="11" y="217.5" width="21" height="5" rx="2.5" fill="#F2F2F2"/>
<rect opacity="0.2" x="11" y="230" width="21" height="5" rx="2.5" fill="#F2F2F2"/>
<rect opacity="0.4" x="9" y="242.5" width="26" height="5" rx="2.5" fill="#F2F2F2"/>
<rect opacity="0.2" x="11" y="255" width="21" height="5" rx="2.5" fill="#F2F2F2"/>
<rect opacity="0.2" x="11" y="267.5" width="21" height="5" rx="2.5" fill="#F2F2F2"/>
<rect opacity="0.4" x="9" y="280" width="26" height="5" rx="2.5" fill="#F2F2F2"/>
<rect opacity="0.2" x="11" y="292.5" width="21" height="5" rx="2.5" fill="#F2F2F2"/>
<rect opacity="0.2" x="11" y="305" width="21" height="5" rx="2.5" fill="#F2F2F2"/>
<rect opacity="0.4" x="9" y="317.5" width="26" height="5" rx="2.5" fill="#F2F2F2"/>
<rect opacity="0.2" x="11" y="330" width="21" height="5" rx="2.5" fill="#F2F2F2"/>
<rect opacity="0.2" x="11" y="342.5" width="21" height="5" rx="2.5" fill="#F2F2F2"/>
<rect opacity="0.4" x="9" y="355" width="26" height="5" rx="2.5" fill="#F2F2F2"/>
</svg>
