{"asset":{"version":"2.0","generator":"babylon.js glTF exporter for 3dsmax 2021 v20211112.3"},"scene":0,"scenes":[{"nodes":[0,1]}],"nodes":[{"mesh":0,"translation":[-23.0017719,1.00044966,2.1525948],"rotation":[0.0,0.49272114,0.0,0.8701873],"scale":[2.0,2.0,2.0],"name":"ORIGAMI_Cerf"},{"mesh":1,"translation":[-21.9377918,2.87795639,2.79090786],"rotation":[0.0,0.49272114,0.0,0.8701873],"scale":[2.0,2.0,2.0],"name":"Object092"}],"meshes":[{"primitives":[{"attributes":{"POSITION":1,"NORMAL":2,"TEXCOORD_0":3},"indices":0,"material":0}],"name":"ORIGAMI_Cerf"},{"primitives":[{"attributes":{"POSITION":5,"NORMAL":6,"TEXCOORD_0":7},"indices":4,"material":0}],"name":"Object092"}],"accessors":[{"bufferView":0,"componentType":5123,"count":1944,"type":"SCALAR","name":"accessorIndices"},{"bufferView":1,"componentType":5126,"count":1296,"max":[0.247733757,1.44880259,0.620381832],"min":[-0.247733757,-6.247199E-08,-0.983923852],"type":"VEC3","name":"accessorPositions"},{"bufferView":1,"byteOffset":15552,"componentType":5126,"count":1296,"type":"VEC3","name":"accessorNormals"},{"bufferView":2,"componentType":5126,"count":1296,"type":"VEC2","name":"accessorUVs"},{"bufferView":0,"byteOffset":3888,"componentType":5123,"count":2040,"type":"SCALAR","name":"accessorIndices"},{"bufferView":1,"byteOffset":31104,"componentType":5126,"count":1360,"max":[0.471635729,1.300347,0.5398626],"min":[-0.471636176,0.0,-0.240595624],"type":"VEC3","name":"accessorPositions"},{"bufferView":1,"byteOffset":47424,"componentType":5126,"count":1360,"type":"VEC3","name":"accessorNormals"},{"bufferView":2,"byteOffset":10368,"componentType":5126,"count":1360,"type":"VEC2","name":"accessorUVs"},{"bufferView":3,"componentType":5126,"count":101,"max":[3.33333325],"min":[0.0],"type":"SCALAR","name":"accessorAnimationInput"},{"bufferView":4,"componentType":5126,"count":101,"type":"VEC4","name":"accessorAnimationRotations"},{"bufferView":3,"byteOffset":404,"componentType":5126,"count":63,"max":[3.33333325],"min":[0.0],"type":"SCALAR","name":"accessorAnimationInput"},{"bufferView":5,"componentType":5126,"count":63,"type":"VEC3","name":"accessorAnimationScales"}],"bufferViews":[{"buffer":0,"byteLength":7968,"name":"bufferViewScalar"},{"buffer":0,"byteOffset":7968,"byteLength":63744,"byteStride":12,"name":"bufferViewFloatVec3"},{"buffer":0,"byteOffset":71712,"byteLength":21248,"byteStride":8,"name":"bufferViewFloatVec2"},{"buffer":0,"byteOffset":92960,"byteLength":656,"name":"bufferViewAnimationFloatScalar"},{"buffer":0,"byteOffset":93616,"byteLength":1616,"name":"bufferViewAnimationFloatVec4"},{"buffer":0,"byteOffset":95232,"byteLength":756,"name":"bufferViewAnimationFloatVec3"}],"buffers":[{"uri":"reindeer_gltf.bin","byteLength":95988}],"materials":[{"pbrMetallicRoughness":{"baseColorFactor":[0.677647054,0.397122324,0.009411765,1.0],"metallicFactor":0.0,"roughnessFactor":0.2},"name":"Material #460","extras":{"babylonUseFactors":false,"babylonDirectIntensity":1.0,"babylonEmissiveIntensity":1.0,"babylonEnvironmentIntensity":1.0,"babylonSpecularIntensity":1.0}}],"animations":[{"channels":[{"sampler":0,"target":{"node":1,"path":"rotation"}},{"sampler":1,"target":{"node":1,"path":"scale"}}],"samplers":[{"input":8,"output":9},{"input":10,"output":11}],"name":"All Animations"}]}